<?xml version="1.0" encoding="UTF-8" standalone="no"?>
<!DOCTYPE svg PUBLIC "-//W3C//DTD SVG 1.1//EN" "http://www.w3.org/Graphics/SVG/1.1/DTD/svg11.dtd">
<svg version="1.1" xmlns="http://www.w3.org/2000/svg" xmlns:xlink="http://www.w3.org/1999/xlink" preserveAspectRatio="xMidYMid meet" viewBox="0 0 150 150" width="150" height="150"><defs><path d="M141.18 130.97C128.02 130.97 22.73 130.97 9.57 130.97C7.31 130.97 5.47 129.14 5.47 126.88C5.47 119.79 5.47 62.98 5.47 55.89C5.47 53.63 7.31 51.79 9.57 51.79C22.73 51.79 128.02 51.79 141.18 51.79C143.44 51.79 145.28 53.63 145.28 55.89C145.28 70.09 145.28 119.79 145.28 126.88C145.28 129.14 143.44 130.97 141.18 130.97Z" id="ekaCsFFP3"></path><path d="M141.18 130.97C128.02 130.97 22.73 130.97 9.57 130.97C7.31 130.97 5.47 129.14 5.47 126.88C5.47 119.79 5.47 62.98 5.47 55.89C5.47 53.63 7.31 51.79 9.57 51.79C22.73 51.79 128.02 51.79 141.18 51.79C143.44 51.79 145.28 53.63 145.28 55.89C145.28 70.09 145.28 119.79 145.28 126.88C145.28 129.14 143.44 130.97 141.18 130.97Z" id="a4pOpSvavL"></path><path d="M75.38 130.97C114.86 130.97 136.79 130.97 141.18 130.97C143.44 130.97 145.28 129.14 145.28 126.88C145.28 119.79 145.28 62.98 145.28 55.89C145.28 53.63 143.44 51.79 141.18 51.79C132.41 51.79 110.47 51.79 75.38 51.79C75.38 67.63 75.38 123.06 75.38 130.97Z" id="b1WXXNt8tt"></path><path d="M75.38 130.97C114.86 130.97 136.79 130.97 141.18 130.97C143.44 130.97 145.28 129.14 145.28 126.88C145.28 119.79 145.28 62.98 145.28 55.89C145.28 53.63 143.44 51.79 141.18 51.79C132.41 51.79 110.47 51.79 75.38 51.79C75.38 67.63 75.38 123.06 75.38 130.97Z" id="a6oRJw3rH3"></path><path d="M4.72 23.12C4.72 25.58 4.72 37.87 4.72 59.99C18.7 59.99 130.54 59.99 144.52 59.99C144.52 37.87 144.52 25.58 144.52 23.12C144.52 20.86 142.69 19.03 140.42 19.03C114.1 19.03 21.98 19.03 8.82 19.03C6.55 19.03 4.72 20.86 4.72 23.12Z" id="d1R977p8X"></path><path d="M4.72 23.12C4.72 25.58 4.72 37.87 4.72 59.99C18.7 59.99 130.54 59.99 144.52 59.99C144.52 37.87 144.52 25.58 144.52 23.12C144.52 20.86 142.69 19.03 140.42 19.03C114.1 19.03 21.98 19.03 8.82 19.03C6.55 19.03 4.72 20.86 4.72 23.12Z" id="bjtXB15bp"></path><path d="M75.38 19.03C75.38 21.76 75.38 35.41 75.38 59.99L145.28 59.99C145.28 37.87 145.28 25.58 145.28 23.12C144.06 20.39 142.69 19.03 141.18 19.03C136.79 19.03 114.86 19.03 75.38 19.03Z" id="a2dVbTqwSb"></path><path d="M75.38 19.03C75.38 21.76 75.38 35.41 75.38 59.99L145.28 59.99C145.28 37.87 145.28 25.58 145.28 23.12C144.06 20.39 142.69 19.03 141.18 19.03C136.79 19.03 114.86 19.03 75.38 19.03Z" id="n1YV7HLF7M"></path><path d="M5.47 23.12C5.47 24.48 5.47 31.31 5.47 43.6C26.11 43.6 37.58 43.6 39.87 43.6C42.14 43.6 43.97 41.77 43.97 39.51C43.97 38.14 43.97 31.31 43.97 19.03C23.33 19.03 11.87 19.03 9.57 19.03C7.31 19.03 5.47 20.86 5.47 23.12Z" id="cWReQe9jP"></path><path d="M5.47 23.12C5.47 24.48 5.47 31.31 5.47 43.6C26.11 43.6 37.58 43.6 39.87 43.6C42.14 43.6 43.97 41.77 43.97 39.51C43.97 38.14 43.97 31.31 43.97 19.03C23.33 19.03 11.87 19.03 9.57 19.03C7.31 19.03 5.47 20.86 5.47 23.12Z" id="b7xzMrgu8"></path><path d="M49.44 39.51C49.44 37.25 51.27 35.41 53.54 35.41C54.9 35.41 65.82 35.41 67.19 35.41C69.45 35.41 71.28 37.25 71.28 39.51C71.28 41.77 69.45 43.6 67.19 43.6C64.45 43.6 54.9 43.6 53.54 43.6C51.27 43.6 49.44 41.77 49.44 39.51Z" id="a2g6DHtmx4"></path><path d="M49.44 39.51C49.44 37.25 51.27 35.41 53.54 35.41C54.9 35.41 65.82 35.41 67.19 35.41C69.45 35.41 71.28 37.25 71.28 39.51C71.28 41.77 69.45 43.6 67.19 43.6C64.45 43.6 54.9 43.6 53.54 43.6C51.27 43.6 49.44 41.77 49.44 39.51Z" id="a3Sv4rCfh"></path><path d="M109.78 39.51C109.78 37.25 111.62 35.41 113.88 35.41C115.24 35.41 126.17 35.41 127.53 35.41C129.79 35.41 131.63 37.25 131.63 39.51C131.63 41.77 129.79 43.6 127.53 43.6C124.8 43.6 115.24 43.6 113.88 43.6C111.62 43.6 109.78 41.77 109.78 39.51Z" id="c6KVFMMRI"></path><path d="M109.78 39.51C109.78 37.25 111.62 35.41 113.88 35.41C115.24 35.41 126.17 35.41 127.53 35.41C129.79 35.41 131.63 37.25 131.63 39.51C131.63 41.77 129.79 43.6 127.53 43.6C124.8 43.6 115.24 43.6 113.88 43.6C111.62 43.6 109.78 41.77 109.78 39.51Z" id="c6JhNsx80"></path><path d="M79.61 39.51C79.61 37.25 81.44 35.41 83.7 35.41C85.07 35.41 95.99 35.41 97.35 35.41C99.62 35.41 101.45 37.25 101.45 39.51C101.45 41.77 99.62 43.6 97.35 43.6C94.63 43.6 85.07 43.6 83.7 43.6C81.44 43.6 79.61 41.77 79.61 39.51Z" id="edeYQ9qZ4"></path><path d="M79.61 39.51C79.61 37.25 81.44 35.41 83.7 35.41C85.07 35.41 95.99 35.41 97.35 35.41C99.62 35.41 101.45 37.25 101.45 39.51C101.45 41.77 99.62 43.6 97.35 43.6C94.63 43.6 85.07 43.6 83.7 43.6C81.44 43.6 79.61 41.77 79.61 39.51Z" id="b1b9xbhBTD"></path><path d="M88.93 113.89C81.11 121.71 68.39 121.71 60.58 113.89C52.76 106.08 52.76 93.36 60.58 85.54C61.4 84.72 65.57 80.55 73.08 73.04C73.18 72.92 73.7 72.33 74.63 71.26C74.63 65.63 74.63 62.51 74.63 61.88C63.25 73.26 56.93 79.59 55.66 80.85C45.24 91.17 45.16 107.97 55.47 118.39C55.53 118.45 55.59 118.52 55.66 118.59C65.98 129 82.78 129.09 93.2 118.78C93.27 118.71 93.33 118.65 93.39 118.59C104.1 108.09 104.1 91.12 93.61 80.85C92.67 81.79 89.39 85.08 88.93 85.54C96.74 93.36 96.74 106.08 88.93 113.89Z" id="e1zaDfTWMi"></path><path d="M88.93 113.89C81.11 121.71 68.39 121.71 60.58 113.89C52.76 106.08 52.76 93.36 60.58 85.54C61.4 84.72 65.57 80.55 73.08 73.04C73.18 72.92 73.7 72.33 74.63 71.26C74.63 65.63 74.63 62.51 74.63 61.88C63.25 73.26 56.93 79.59 55.66 80.85C45.24 91.17 45.16 107.97 55.47 118.39C55.53 118.45 55.59 118.52 55.66 118.59C65.98 129 82.78 129.09 93.2 118.78C93.27 118.71 93.33 118.65 93.39 118.59C104.1 108.09 104.1 91.12 93.61 80.85C92.67 81.79 89.39 85.08 88.93 85.54C96.74 93.36 96.74 106.08 88.93 113.89Z" id="e3jydmGU7"></path><path d="M80.67 75.95C80.67 77.92 82.26 79.52 84.24 79.52C86.2 79.52 87.81 77.92 87.81 75.95C87.81 73.97 86.2 72.38 84.24 72.38C82.26 72.38 80.67 73.97 80.67 75.95Z" id="e1y7sJeD1e"></path><path d="M80.67 75.95C80.67 77.92 82.26 79.52 84.24 79.52C86.2 79.52 87.81 77.92 87.81 75.95C87.81 73.97 86.2 72.38 84.24 72.38C82.26 72.38 80.67 73.97 80.67 75.95Z" id="bocxNZcTl"></path></defs><g><g><g><g><use xlink:href="#ekaCsFFP3" opacity="1" fill="#f1f1f6" fill-opacity="1"></use><g><use xlink:href="#ekaCsFFP3" opacity="1" fill-opacity="0" stroke="#000000" stroke-width="1" stroke-opacity="0"></use></g></g><g><use xlink:href="#a4pOpSvavL" opacity="1" fill="#000000" fill-opacity="0"></use><g><use xlink:href="#a4pOpSvavL" opacity="1" fill-opacity="0" stroke="#000000" stroke-width="1" stroke-opacity="0"></use></g></g><g><use xlink:href="#b1WXXNt8tt" opacity="1" fill="#d4d6e1" fill-opacity="1"></use><g><use xlink:href="#b1WXXNt8tt" opacity="1" fill-opacity="0" stroke="#000000" stroke-width="1" stroke-opacity="0"></use></g></g><g><use xlink:href="#a6oRJw3rH3" opacity="1" fill="#000000" fill-opacity="0"></use><g><use xlink:href="#a6oRJw3rH3" opacity="1" fill-opacity="0" stroke="#000000" stroke-width="1" stroke-opacity="0"></use></g></g><g><use xlink:href="#d1R977p8X" opacity="1" fill="#812ce5" fill-opacity="1"></use><g><use xlink:href="#d1R977p8X" opacity="1" fill-opacity="0" stroke="#000000" stroke-width="1" stroke-opacity="0"></use></g></g><g><use xlink:href="#bjtXB15bp" opacity="1" fill="#000000" fill-opacity="0"></use><g><use xlink:href="#bjtXB15bp" opacity="1" fill-opacity="0" stroke="#000000" stroke-width="1" stroke-opacity="0"></use></g></g><g><use xlink:href="#a2dVbTqwSb" opacity="1" fill="#ee4c2c" fill-opacity="1"></use><g><use xlink:href="#a2dVbTqwSb" opacity="1" fill-opacity="0" stroke="#000000" stroke-width="1" stroke-opacity="0"></use></g></g><g><use xlink:href="#n1YV7HLF7M" opacity="1" fill="#000000" fill-opacity="0"></use><g><use xlink:href="#n1YV7HLF7M" opacity="1" fill-opacity="0" stroke="#000000" stroke-width="1" stroke-opacity="0"></use></g></g><g><use xlink:href="#cWReQe9jP" opacity="1" fill="#b996e1" fill-opacity="1"></use><g><use xlink:href="#cWReQe9jP" opacity="1" fill-opacity="0" stroke="#000000" stroke-width="1" stroke-opacity="0"></use></g></g><g><use xlink:href="#b7xzMrgu8" opacity="1" fill="#000000" fill-opacity="0"></use><g><use xlink:href="#b7xzMrgu8" opacity="1" fill-opacity="0" stroke="#000000" stroke-width="1" stroke-opacity="0"></use></g></g><g><use xlink:href="#a2g6DHtmx4" opacity="1" fill="#5c1ca7" fill-opacity="1"></use><g><use xlink:href="#a2g6DHtmx4" opacity="1" fill-opacity="0" stroke="#000000" stroke-width="1" stroke-opacity="0"></use></g></g><g><use xlink:href="#a3Sv4rCfh" opacity="1" fill="#000000" fill-opacity="0"></use><g><use xlink:href="#a3Sv4rCfh" opacity="1" fill-opacity="0" stroke="#000000" stroke-width="1" stroke-opacity="0"></use></g></g><g><use xlink:href="#c6KVFMMRI" opacity="1" fill="#ae3821" fill-opacity="1"></use><g><use xlink:href="#c6KVFMMRI" opacity="1" fill-opacity="0" stroke="#000000" stroke-width="1" stroke-opacity="0"></use></g></g><g><use xlink:href="#c6JhNsx80" opacity="1" fill="#000000" fill-opacity="0"></use><g><use xlink:href="#c6JhNsx80" opacity="1" fill-opacity="0" stroke="#000000" stroke-width="1" stroke-opacity="0"></use></g></g><g><use xlink:href="#edeYQ9qZ4" opacity="1" fill="#ae3821" fill-opacity="1"></use><g><use xlink:href="#edeYQ9qZ4" opacity="1" fill-opacity="0" stroke="#000000" stroke-width="1" stroke-opacity="0"></use></g></g><g><use xlink:href="#b1b9xbhBTD" opacity="1" fill="#000000" fill-opacity="0"></use><g><use xlink:href="#b1b9xbhBTD" opacity="1" fill-opacity="0" stroke="#000000" stroke-width="1" stroke-opacity="0"></use></g></g><g><use xlink:href="#e1zaDfTWMi" opacity="1" fill="#ee4c2c" fill-opacity="1"></use><g><use xlink:href="#e1zaDfTWMi" opacity="1" fill-opacity="0" stroke="#000000" stroke-width="1" stroke-opacity="0"></use></g></g><g><use xlink:href="#e3jydmGU7" opacity="1" fill="#000000" fill-opacity="0"></use><g><use xlink:href="#e3jydmGU7" opacity="1" fill-opacity="0" stroke="#000000" stroke-width="1" stroke-opacity="0"></use></g></g><g><use xlink:href="#e1y7sJeD1e" opacity="1" fill="#ee4c2c" fill-opacity="1"></use><g><use xlink:href="#e1y7sJeD1e" opacity="1" fill-opacity="0" stroke="#000000" stroke-width="1" stroke-opacity="0"></use></g></g><g><use xlink:href="#bocxNZcTl" opacity="1" fill="#000000" fill-opacity="0"></use><g><use xlink:href="#bocxNZcTl" opacity="1" fill-opacity="0" stroke="#000000" stroke-width="1" stroke-opacity="0"></use></g></g></g></g></g></svg>
