<?xml version="1.0" encoding="UTF-8" standalone="no"?>
<!DOCTYPE svg PUBLIC "-//W3C//DTD SVG 1.1//EN" "http://www.w3.org/Graphics/SVG/1.1/DTD/svg11.dtd">
<svg version="1.1" xmlns="http://www.w3.org/2000/svg" xmlns:xlink="http://www.w3.org/1999/xlink" preserveAspectRatio="xMidYMid meet" viewBox="0 0 200 200" width="200" height="200"><defs><path d="M164.87 156.63C152.42 156.63 52.74 156.63 40.27 156.63C38.13 156.63 36.39 154.9 36.39 152.76C36.39 146.04 36.39 92.27 36.39 85.55C36.39 83.41 38.13 81.67 40.27 81.67C52.74 81.67 152.42 81.67 164.87 81.67C167.01 81.67 168.75 83.41 168.75 85.55C168.75 98.99 168.75 146.04 168.75 152.76C168.75 154.9 167.01 156.63 164.87 156.63Z" id="a3ImPddZMT"></path><path d="M164.87 156.63C152.42 156.63 52.74 156.63 40.27 156.63C38.13 156.63 36.39 154.9 36.39 152.76C36.39 146.04 36.39 92.27 36.39 85.55C36.39 83.41 38.13 81.67 40.27 81.67C52.74 81.67 152.42 81.67 164.87 81.67C167.01 81.67 168.75 83.41 168.75 85.55C168.75 98.99 168.75 146.04 168.75 152.76C168.75 154.9 167.01 156.63 164.87 156.63Z" id="b1rlEHO5r6"></path><path d="M102.58 156.63C139.95 156.63 160.72 156.63 164.87 156.63C167.01 156.63 168.75 154.9 168.75 152.76C168.75 146.04 168.75 92.27 168.75 85.55C168.75 83.41 167.01 81.67 164.87 81.67C156.57 81.67 135.8 81.67 102.58 81.67C102.58 96.67 102.58 149.14 102.58 156.63Z" id="b3BkBdnuXK"></path><path d="M102.58 156.63C139.95 156.63 160.72 156.63 164.87 156.63C167.01 156.63 168.75 154.9 168.75 152.76C168.75 146.04 168.75 92.27 168.75 85.55C168.75 83.41 167.01 81.67 164.87 81.67C156.57 81.67 135.8 81.67 102.58 81.67C102.58 96.67 102.58 149.14 102.58 156.63Z" id="aaxl1OLib"></path><path d="M35.69 54.53C35.69 56.86 35.69 68.49 35.69 89.43C48.92 89.43 154.8 89.43 168.03 89.43C168.03 68.49 168.03 56.86 168.03 54.53C168.03 52.39 166.31 50.65 164.16 50.65C139.24 50.65 52.02 50.65 39.57 50.65C37.42 50.65 35.69 52.39 35.69 54.53Z" id="b9r7SMUuO"></path><path d="M35.69 54.53C35.69 56.86 35.69 68.49 35.69 89.43C48.92 89.43 154.8 89.43 168.03 89.43C168.03 68.49 168.03 56.86 168.03 54.53C168.03 52.39 166.31 50.65 164.16 50.65C139.24 50.65 52.02 50.65 39.57 50.65C37.42 50.65 35.69 52.39 35.69 54.53Z" id="dck4GUNR2"></path><path d="M102.58 50.65C102.58 53.24 102.58 66.16 102.58 89.43L168.75 89.43C168.75 68.49 168.75 56.86 168.75 54.53C167.59 51.94 166.31 50.65 164.87 50.65C160.72 50.65 139.95 50.65 102.58 50.65Z" id="a2obOQWExj"></path><path d="M102.58 50.65C102.58 53.24 102.58 66.16 102.58 89.43L168.75 89.43C168.75 68.49 168.75 56.86 168.75 54.53C167.59 51.94 166.31 50.65 164.87 50.65C160.72 50.65 139.95 50.65 102.58 50.65Z" id="c44d8o0MZ"></path><path d="M36.39 54.53C36.39 55.82 36.39 62.28 36.39 73.92C55.94 73.92 66.8 73.92 68.97 73.92C71.11 73.92 72.84 72.18 72.84 70.04C72.84 68.75 72.84 62.28 72.84 50.65C53.3 50.65 42.45 50.65 40.27 50.65C38.13 50.65 36.39 52.39 36.39 54.53Z" id="haRFdOmPT"></path><path d="M36.39 54.53C36.39 55.82 36.39 62.28 36.39 73.92C55.94 73.92 66.8 73.92 68.97 73.92C71.11 73.92 72.84 72.18 72.84 70.04C72.84 68.75 72.84 62.28 72.84 50.65C53.3 50.65 42.45 50.65 40.27 50.65C38.13 50.65 36.39 52.39 36.39 54.53Z" id="b38pRG4Vr"></path><path d="M78.02 70.04C78.02 67.9 79.75 66.16 81.9 66.16C83.19 66.16 93.53 66.16 94.82 66.16C96.96 66.16 98.7 67.9 98.7 70.04C98.7 72.18 96.96 73.92 94.82 73.92C92.23 73.92 83.19 73.92 81.9 73.92C79.75 73.92 78.02 72.18 78.02 70.04Z" id="aS7FUw48q"></path><path d="M78.02 70.04C78.02 67.9 79.75 66.16 81.9 66.16C83.19 66.16 93.53 66.16 94.82 66.16C96.96 66.16 98.7 67.9 98.7 70.04C98.7 72.18 96.96 73.92 94.82 73.92C92.23 73.92 83.19 73.92 81.9 73.92C79.75 73.92 78.02 72.18 78.02 70.04Z" id="bNsc8d26v"></path><path d="M135.15 70.04C135.15 67.9 136.89 66.16 139.03 66.16C140.32 66.16 150.66 66.16 151.95 66.16C154.09 66.16 155.83 67.9 155.83 70.04C155.83 72.18 154.09 73.92 151.95 73.92C149.36 73.92 140.32 73.92 139.03 73.92C136.89 73.92 135.15 72.18 135.15 70.04Z" id="ampM1vgC"></path><path d="M135.15 70.04C135.15 67.9 136.89 66.16 139.03 66.16C140.32 66.16 150.66 66.16 151.95 66.16C154.09 66.16 155.83 67.9 155.83 70.04C155.83 72.18 154.09 73.92 151.95 73.92C149.36 73.92 140.32 73.92 139.03 73.92C136.89 73.92 135.15 72.18 135.15 70.04Z" id="aVu9UAt2E"></path><path d="M106.58 70.04C106.58 67.9 108.32 66.16 110.46 66.16C111.76 66.16 122.09 66.16 123.38 66.16C125.53 66.16 127.26 67.9 127.26 70.04C127.26 72.18 125.53 73.92 123.38 73.92C120.8 73.92 111.76 73.92 110.46 73.92C108.32 73.92 106.58 72.18 106.58 70.04Z" id="jJzvUM4GW"></path><path d="M106.58 70.04C106.58 67.9 108.32 66.16 110.46 66.16C111.76 66.16 122.09 66.16 123.38 66.16C125.53 66.16 127.26 67.9 127.26 70.04C127.26 72.18 125.53 73.92 123.38 73.92C120.8 73.92 111.76 73.92 110.46 73.92C108.32 73.92 106.58 72.18 106.58 70.04Z" id="h282FZ25qP"></path><path d="M115.4 140.46C108 147.87 95.96 147.87 88.57 140.46C81.16 133.07 81.16 121.03 88.57 113.62C89.35 112.84 93.29 108.9 100.4 101.79C100.5 101.68 100.99 101.11 101.87 100.1C101.87 94.78 101.87 91.82 101.87 91.23C91.1 102 85.11 107.99 83.91 109.18C74.05 118.95 73.97 134.86 83.73 144.72C83.79 144.78 83.85 144.85 83.91 144.91C93.68 154.76 109.59 154.85 119.45 145.09C119.51 145.02 119.57 144.96 119.63 144.91C129.77 134.97 129.77 118.91 119.84 109.18C118.95 110.07 115.84 113.18 115.4 113.62C122.8 121.03 122.8 133.07 115.4 140.46Z" id="h4IMK6OLKO"></path><path d="M115.4 140.46C108 147.87 95.96 147.87 88.57 140.46C81.16 133.07 81.16 121.03 88.57 113.62C89.35 112.84 93.29 108.9 100.4 101.79C100.5 101.68 100.99 101.11 101.87 100.1C101.87 94.78 101.87 91.82 101.87 91.23C91.1 102 85.11 107.99 83.91 109.18C74.05 118.95 73.97 134.86 83.73 144.72C83.79 144.78 83.85 144.85 83.91 144.91C93.68 154.76 109.59 154.85 119.45 145.09C119.51 145.02 119.57 144.96 119.63 144.91C129.77 134.97 129.77 118.91 119.84 109.18C118.95 110.07 115.84 113.18 115.4 113.62C122.8 121.03 122.8 133.07 115.4 140.46Z" id="b3OixvbhpO"></path><path d="M107.58 104.54C107.58 106.4 109.09 107.92 110.96 107.92C112.83 107.92 114.34 106.4 114.34 104.54C114.34 102.67 112.83 101.16 110.96 101.16C109.09 101.16 107.58 102.67 107.58 104.54Z" id="b1srk0lPf"></path><path d="M107.58 104.54C107.58 106.4 109.09 107.92 110.96 107.92C112.83 107.92 114.34 106.4 114.34 104.54C114.34 102.67 112.83 101.16 110.96 101.16C109.09 101.16 107.58 102.67 107.58 104.54Z" id="a2wxj2U98f"></path></defs><g><g><g><g><use xlink:href="#a3ImPddZMT" opacity="1" fill="#f1f1f6" fill-opacity="1"></use><g><use xlink:href="#a3ImPddZMT" opacity="1" fill-opacity="0" stroke="#000000" stroke-width="1" stroke-opacity="0"></use></g></g><g><use xlink:href="#b1rlEHO5r6" opacity="1" fill="#000000" fill-opacity="0"></use><g><use xlink:href="#b1rlEHO5r6" opacity="1" fill-opacity="0" stroke="#000000" stroke-width="1" stroke-opacity="0"></use></g></g><g><use xlink:href="#b3BkBdnuXK" opacity="1" fill="#d4d6e1" fill-opacity="1"></use><g><use xlink:href="#b3BkBdnuXK" opacity="1" fill-opacity="0" stroke="#000000" stroke-width="1" stroke-opacity="0"></use></g></g><g><use xlink:href="#aaxl1OLib" opacity="1" fill="#000000" fill-opacity="0"></use><g><use xlink:href="#aaxl1OLib" opacity="1" fill-opacity="0" stroke="#000000" stroke-width="1" stroke-opacity="0"></use></g></g><g><use xlink:href="#b9r7SMUuO" opacity="1" fill="#812ce5" fill-opacity="1"></use><g><use xlink:href="#b9r7SMUuO" opacity="1" fill-opacity="0" stroke="#000000" stroke-width="1" stroke-opacity="0"></use></g></g><g><use xlink:href="#dck4GUNR2" opacity="1" fill="#000000" fill-opacity="0"></use><g><use xlink:href="#dck4GUNR2" opacity="1" fill-opacity="0" stroke="#000000" stroke-width="1" stroke-opacity="0"></use></g></g><g><use xlink:href="#a2obOQWExj" opacity="1" fill="#ee4c2c" fill-opacity="1"></use><g><use xlink:href="#a2obOQWExj" opacity="1" fill-opacity="0" stroke="#000000" stroke-width="1" stroke-opacity="0"></use></g></g><g><use xlink:href="#c44d8o0MZ" opacity="1" fill="#000000" fill-opacity="0"></use><g><use xlink:href="#c44d8o0MZ" opacity="1" fill-opacity="0" stroke="#000000" stroke-width="1" stroke-opacity="0"></use></g></g><g><use xlink:href="#haRFdOmPT" opacity="1" fill="#b996e1" fill-opacity="1"></use><g><use xlink:href="#haRFdOmPT" opacity="1" fill-opacity="0" stroke="#000000" stroke-width="1" stroke-opacity="0"></use></g></g><g><use xlink:href="#b38pRG4Vr" opacity="1" fill="#000000" fill-opacity="0"></use><g><use xlink:href="#b38pRG4Vr" opacity="1" fill-opacity="0" stroke="#000000" stroke-width="1" stroke-opacity="0"></use></g></g><g><use xlink:href="#aS7FUw48q" opacity="1" fill="#5c1ca7" fill-opacity="1"></use><g><use xlink:href="#aS7FUw48q" opacity="1" fill-opacity="0" stroke="#000000" stroke-width="1" stroke-opacity="0"></use></g></g><g><use xlink:href="#bNsc8d26v" opacity="1" fill="#000000" fill-opacity="0"></use><g><use xlink:href="#bNsc8d26v" opacity="1" fill-opacity="0" stroke="#000000" stroke-width="1" stroke-opacity="0"></use></g></g><g><use xlink:href="#ampM1vgC" opacity="1" fill="#ae3821" fill-opacity="1"></use><g><use xlink:href="#ampM1vgC" opacity="1" fill-opacity="0" stroke="#000000" stroke-width="1" stroke-opacity="0"></use></g></g><g><use xlink:href="#aVu9UAt2E" opacity="1" fill="#000000" fill-opacity="0"></use><g><use xlink:href="#aVu9UAt2E" opacity="1" fill-opacity="0" stroke="#000000" stroke-width="1" stroke-opacity="0"></use></g></g><g><use xlink:href="#jJzvUM4GW" opacity="1" fill="#ae3821" fill-opacity="1"></use><g><use xlink:href="#jJzvUM4GW" opacity="1" fill-opacity="0" stroke="#000000" stroke-width="1" stroke-opacity="0"></use></g></g><g><use xlink:href="#h282FZ25qP" opacity="1" fill="#000000" fill-opacity="0"></use><g><use xlink:href="#h282FZ25qP" opacity="1" fill-opacity="0" stroke="#000000" stroke-width="1" stroke-opacity="0"></use></g></g><g><use xlink:href="#h4IMK6OLKO" opacity="1" fill="#ee4c2c" fill-opacity="1"></use><g><use xlink:href="#h4IMK6OLKO" opacity="1" fill-opacity="0" stroke="#000000" stroke-width="1" stroke-opacity="0"></use></g></g><g><use xlink:href="#b3OixvbhpO" opacity="1" fill="#000000" fill-opacity="0"></use><g><use xlink:href="#b3OixvbhpO" opacity="1" fill-opacity="0" stroke="#000000" stroke-width="1" stroke-opacity="0"></use></g></g><g><use xlink:href="#b1srk0lPf" opacity="1" fill="#ee4c2c" fill-opacity="1"></use><g><use xlink:href="#b1srk0lPf" opacity="1" fill-opacity="0" stroke="#000000" stroke-width="1" stroke-opacity="0"></use></g></g><g><use xlink:href="#a2wxj2U98f" opacity="1" fill="#000000" fill-opacity="0"></use><g><use xlink:href="#a2wxj2U98f" opacity="1" fill-opacity="0" stroke="#000000" stroke-width="1" stroke-opacity="0"></use></g></g></g></g></g></svg>
